<?xml version="1.0" encoding="UTF-8"?>
<svg width="1224px" height="1224px" viewBox="0 0 1224 1224" version="1.1" xmlns="http://www.w3.org/2000/svg" xmlns:xlink="http://www.w3.org/1999/xlink">
    <!-- Generator: Sketch 52.5 (67469) - http://www.bohemiancoding.com/sketch -->
    <title>wasi-icon</title>
    <desc>Created with Sketch.</desc>
    <g id="Logos" stroke="none" stroke-width="1" fill="none" fill-rule="evenodd">
        <g id="WASI-logo" transform="translate(-2.000000, 221.000000)">
            <g id="SI" transform="translate(610.000000, 169.000000)">
                <path d="M236,612 L0,612 L0,0 L612,0 L612,612 L376.34,612 C376.34,610.92 376.34,609.84 376.34,608.7 C376.34,569.95 344.93,538.53 306.17,538.53 C267.42,538.53 236,569.94 236,608.7 C236,609.84 236,610.92 236,612 Z" id="Path" fill="#963CBD"></path>
                <path d="M213.65,217.28 C185.977565,217.721135 172.089883,217.804441 171.986955,217.52992 C167.25084,204.898196 158.931879,193.76 143.93,193.76 C129.65,193.76 117.33,204.12 117.33,218.96 C117.33,261.8 219.81,233.8 219.81,315 C219.81,341.6 199.65,381.36 145.89,381.36 C104.45,381.36 74.49,361.2 67.77,318.64 L113.076585,318.514689 C113.179988,318.849916 113.285759,319.182943 113.39394,319.513704 C118.192803,334.186171 127.732492,344.4 145.61,344.4 C162.69,344.4 176.97,335.44 176.97,316.68 C176.97,273 74.49,298.2 74.49,224 C74.49,184.8 107.53,156.8 145.33,156.8 C182.29,156.8 210.01,180.6 213.65,217.28 Z M281.47,378 L237.79,378 L237.79,160.16 L281.47,160.16 L281.47,378 Z" fill="#FFFFFF"></path>
            </g>
            <g id="WA">
                <path d="M376,2.66453526e-15 C376,1.08 376,2.16 376,3.3 C376,42.06 344.58,73.47 305.83,73.47 C267.07,73.47 235.66,42.05 235.66,3.3 C235.66,2.16 235.66,1.08 235.66,0 L0,0 L0,612 L612,612 L612,0 L376,2.66453526e-15 Z" id="Path" fill="#654FF0"></path>
                <path d="M142.16,329.81 L182.72,329.81 L210.41,477.28 L210.91,477.28 L244.19,329.81 L282.13,329.81 L312.19,479.09 L312.78,479.09 L344.34,329.81 L384.12,329.81 L332.43,546.5 L292.18,546.5 L262.37,399.03 L261.59,399.03 L229.68,546.5 L188.68,546.5 L142.16,329.81 Z M429.85,329.81 L493.79,329.81 L557.29,546.5 L515.45,546.5 L501.64,498.28 L428.8,498.28 L418.14,546.5 L377.39,546.5 L429.85,329.81 Z M454.19,383.22 L436.5,462.72 L491.56,462.72 L471.25,383.22 L454.19,383.22 Z" id="Shape" fill="#FFFFFF" fill-rule="nonzero"></path>
            </g>
        </g>
    </g>
</svg>